# Blender v2.76 (sub 0) OBJ File: ''
# www.blender.org
mtllib present.mtl
g Plane
v -0.078956 -0.991092 -1.195037
v 0.086734 -0.991092 -1.194070
v 0.086742 0.989003 -1.195001
v -0.078948 0.989003 -1.195968
v 0.072761 0.989003 1.199331
v -0.092928 0.989003 1.198363
v 0.072760 -0.986915 1.199331
v -0.092930 -0.986915 1.198363
v 1.371007 -0.991093 -0.076774
v 1.370039 -0.991093 0.088916
v 1.371104 0.989002 0.088922
v 1.372072 0.989002 -0.076769
v -1.365347 0.989004 0.072944
v -1.364380 0.989004 -0.092746
v -1.365348 -0.986914 0.072945
v -1.364381 -0.986914 -0.092745
vn -0.005800 0.000500 1.000000
vn -0.000000 -1.000000 0.000000
vn 0.005800 0.000000 -1.000000
vn 0.000000 1.000000 -0.001700
vn -1.000000 0.000500 -0.005800
vn 1.000000 -0.000000 0.005800
vn 0.001500 1.000000 0.000000
usemtl Material.013
s 1
f 1//1 2//1 3//1 4//1
f 4//2 3//2 5//2 6//2
f 6//3 5//3 7//3 8//3
f 8//4 7//4 2//4 1//4
f 9//5 10//5 11//5 12//5
f 12//2 11//2 13//2 14//2
f 14//6 13//6 15//6 16//6
f 16//7 15//7 10//7 9//7
g Cube_Cube.001
v -1.303261 -0.952781 -1.141332
v 1.306294 -0.952781 -1.137860
v 1.303261 -0.952781 1.141333
v -1.306294 -0.952781 1.137859
v -1.303260 0.952781 -1.141333
v -1.306294 0.952781 1.137860
v 1.303261 0.952781 1.141333
v 1.306294 0.952781 -1.137859
vn 0.000000 -1.000000 0.000000
vn -0.000000 1.000000 -0.000000
vn 0.001300 -0.000000 -1.000000
vn 1.000000 0.000000 0.001300
vn -0.001300 -0.000000 1.000000
vn -1.000000 0.000000 -0.001300
usemtl Material.014
s 1
f 17//8 18//8 19//8 20//8
f 21//9 22//9 23//9 24//9
f 17//10 21//10 24//10 18//10
f 18//11 24//11 23//11 19//11
f 19//12 23//12 22//12 20//12
f 21//13 17//13 20//13 22//13
